<svg width="332" height="473" viewBox="0 0 332 473" fill="none" xmlns="http://www.w3.org/2000/svg">
<path d="M115 240H192.5L214.5 334L188.5 343.5L157 346L148.5 438.5L115 435V350L64.5 360.5L61.5 327L115 320.5V240Z" fill="#FF5678"/>
<path d="M25 100L34 103.5L44.5 119.5L52 132.5L46.5 114L43 100L46.5 96L55 105L61.5 116.5L65 125.5L59 90L67 100L77 132.5L93.5 137.5L91 146L69.5 156L67 168.5L37.5 174.5L34 135.5L25 100Z" fill="white"/>
<path d="M124 78.5L152 105.5L158 119L150.5 130.5L142.5 134L141 139.5L155.5 148.5L163 188L178 228L174 237L152 241H128.5L124 209L113 158L119 148.5V139.5L110 130.5L102 134L94 125.5L102 114L99 94L124 78.5Z" fill="white"/>
<path d="M267 16L303.5 22.5L315.5 38L319.5 60V82L289 85L278.5 62L282 75.5L273.5 81L262.5 87L247 97L237.5 85L216.5 54L204 35L235.5 7.99996L252.5 12.5L267 16Z" fill="white"/>
<path d="M118 438.5H144.5L161.5 453L179.5 462.5L175.5 469.5L118 460V438.5Z" fill="white"/>
<path d="M33.5 338L60 327V351.5L55.5 363L58 388.5L42.5 386L35 361.5L33.5 338Z" fill="white"/>
<path d="M238.615 2.56637C239.233 2.56074 241.699 4.2971 244.098 6.42477C248.231 10.0928 248.581 10.2163 250.779 8.77633C252.895 7.39033 254.087 7.48932 264.297 9.90231C270.455 11.3573 280.379 13.688 286.349 15.08C299.475 18.142 301.901 19.3297 308.494 25.9277C318.107 35.5477 321.411 45.9481 321.461 66.7451L321.494 80.4345L326.315 81.0986C332.172 81.9046 333.407 83.9869 329.797 86.9648C328.275 88.2198 326.525 91.4528 325.416 95.0547C322.711 103.844 314.723 118.965 308.481 127.115C295.802 143.668 274.486 158.056 250.994 165.919C237.237 170.523 209.977 175.555 198.79 175.555H188.719L189.378 181.169C190.035 186.758 196.24 203.198 201.865 214.253C203.488 217.444 208.453 225.23 212.896 231.555C217.338 237.879 220.978 244.088 220.984 245.353C220.989 246.616 219.871 248.691 218.498 249.963C215.529 252.715 203.981 258.555 201.508 258.555C199.114 258.555 199.84 261.971 204.415 272.222C210.19 285.162 217.966 325.447 216.298 333.786C214.766 341.445 204.829 344.763 173.494 348.078C165.244 348.951 158.18 349.978 157.797 350.36C157.112 351.047 156.024 368.757 153.915 413.555C153.332 425.93 152.469 437.53 151.997 439.334C151.413 441.567 151.515 442.962 152.317 443.711C152.966 444.316 160.02 448.016 167.994 451.933C178.66 457.171 182.887 459.772 183.98 461.77C185.426 464.412 185.347 464.603 181.121 468.664L176.775 472.839L165.135 472.245C149.922 471.468 135.625 469.216 124.61 465.862C116.356 463.349 115.621 462.907 114.251 459.629C112.936 456.481 112.959 455.233 114.458 448.077C115.738 441.97 115.883 439.383 115.067 437.24C114.477 435.692 113.971 428.267 113.943 420.74C113.915 413.213 113.426 402.105 112.855 396.055C112.286 390.005 111.52 378.305 111.156 370.055L110.494 355.055L106.618 355.29C103.37 355.486 70.6356 362.894 67.4942 364.144C66.9442 364.363 65.7328 365.089 64.8028 365.757C63.4249 366.746 62.7287 366.625 61.0528 365.108C59.0068 363.257 58.9936 363.27 59.0596 367.15C59.0957 369.299 59.6834 374.983 60.3633 379.781C61.0733 384.784 61.2371 389.157 60.7481 390.031C59.4143 392.412 43.8865 392.198 41.6875 389.768C35.1265 382.518 27.8184 347.679 30.9004 338.34C31.8874 335.35 32.9873 334.389 37.7842 332.327C40.9252 330.977 46.6442 329.055 50.4942 328.054C54.3441 327.054 58.4141 325.416 59.5391 324.414C61.6371 322.544 69.8972 321.506 96.4942 319.771L107.494 319.055L107.194 301.088C107.029 291.207 106.701 282.932 106.465 282.693C106.23 282.457 102.825 281.97 98.8994 281.61C88.0294 280.614 88.3844 281.733 89.9444 253.339C90.4664 243.833 91.1404 228.473 91.4414 219.205L91.9893 202.355L84.0508 212.301C76.2728 222.045 64.4832 233.153 42.4942 251.454C29.6173 262.172 22.9482 265.786 14.9883 266.362C9.75331 266.74 9.02779 266.524 5.67679 263.581C1.57086 259.976 0.00802923 255.608 2.93e-05 247.712C-0.00796339 240.564 3.39766 224.23 6.76565 215.264C10.9927 204.008 21.5263 184.624 27.5713 176.974C30.5782 173.168 33.9021 168.25 34.9571 166.044C36.8501 162.087 36.8504 161.895 34.9444 152.044C33.8814 146.55 30.6763 132.737 27.8223 121.349C23.4413 103.864 22.814 100.246 23.792 98.0986C24.4301 96.6997 25.6652 95.5547 26.5381 95.5547C29.1301 95.5548 38.5615 105.774 41.8467 112.141C45.3757 118.983 45.4782 118.947 43.4942 111.555C40.7822 101.452 41.7762 92.5547 45.6172 92.5547C47.8912 92.5549 52.7546 97.5159 54.8487 101.97C56.9557 106.452 60.0688 109.779 58.5918 105.969C57.1489 102.248 56.7013 90.9716 57.9063 88.7197C60.8393 83.2393 66.5857 92.9123 74.0186 115.842C76.7846 124.374 79.6982 131.894 80.4922 132.553C82.3402 134.087 91.9942 132.903 91.9942 131.143C91.9933 129.331 85.7689 121.556 84.3194 121.555C81.9034 121.555 80.7158 113.735 81.9746 106.108C82.6146 102.229 83.0884 97.5347 83.0274 95.6777C82.9115 92.2018 85.2603 88.5547 87.6143 88.5547C88.3343 88.5545 89.4052 87.6545 89.9942 86.5547C90.5832 85.4548 91.9171 84.5547 92.96 84.5547C94.152 84.5547 94.9729 83.7347 95.1739 82.3457C95.3759 80.9488 96.4132 79.9217 97.9942 79.5537C99.3691 79.2326 101.081 77.7516 101.799 76.2627C103.093 73.5757 106.293 72.6108 107.489 74.5478C107.828 75.0947 109.152 74.3212 110.441 72.8213C112.615 70.2943 112.964 70.2011 115.387 71.498C117.615 72.69 118.372 72.6908 120.594 71.5009C123.019 70.204 123.328 70.2931 125.178 72.832C126.38 74.4839 128.102 75.5545 129.552 75.5547C131.204 75.5547 132.429 76.4949 133.516 78.5976C134.382 80.2716 136.227 82.1599 137.617 82.7929C140.58 84.143 142.994 88.3407 142.994 92.1416C142.994 94.0376 144.912 96.9723 149.511 102.111C157.205 110.707 158.98 113.805 158.988 118.655C158.998 124.377 152.742 132.091 145.707 135.03C143.665 135.884 141.994 137.026 141.994 137.568C141.994 138.802 143.29 138.844 144.544 137.651C145.112 137.111 149.519 137.34 155.494 138.22C181.667 142.074 216.869 135.871 244.494 122.538C261.012 114.566 276.49 102.195 280.772 93.541C282.722 89.5982 282.758 89.1239 281.282 86.872C279.779 84.5771 279.809 84.4157 281.843 83.8838C283.963 83.3298 284.981 79.5547 283.012 79.5547C281.654 79.5557 270.49 86.4423 258.287 94.8056C252.39 98.8482 247.463 101.565 246.616 101.24C245.811 100.931 243.23 98.0631 240.881 94.8672C238.532 91.6702 230.203 80.5047 222.373 70.0547C201.947 42.7948 198.604 35.2724 204.244 29.2724C206.185 27.2084 223.076 13.5667 233.994 5.24508C235.919 3.77808 237.999 2.57237 238.615 2.56637ZM121.165 440.555L120.458 448.1C120.069 452.249 119.993 455.886 120.289 456.183C121.08 456.975 162.458 465.167 169.66 465.958C179.995 467.093 179.36 463.171 168.63 459.6C160.588 456.924 151.853 451.131 148.049 445.95C145.227 442.107 144.639 441.803 138.867 441.2C135.476 440.845 130.105 440.555 126.933 440.555H121.165ZM122.096 420.055C122.103 422.804 122.421 426.744 122.802 428.811L123.494 432.568L133.994 432.91C143.009 433.203 143.928 433.095 140.494 432.15C135.328 430.728 131.036 428.341 128.359 425.4C127.185 424.11 125.293 421.255 124.154 419.055L122.082 415.055L122.096 420.055ZM122.004 401.422C122.015 410.319 124.511 416.801 130.46 423.386C133.884 427.175 142.31 431.573 143.626 430.257C144.622 429.26 145.904 415.553 145.95 405.4L145.994 395.744L138.244 396.254C132.806 396.612 129.226 396.321 126.244 395.277L121.994 393.789L122.004 401.422ZM145.814 388.769C145.088 388.886 139.432 389.126 133.244 389.302C127.057 389.477 121.994 389.997 121.994 390.458C121.994 392.128 130.676 393.654 138.494 393.358C145.922 393.077 146.517 392.894 146.814 390.805C147.017 389.375 146.652 388.633 145.814 388.769ZM138.754 365.236C134.006 361.409 125.417 360.275 122.589 363.103C121.026 364.666 120.904 366.089 121.527 375.462C121.915 381.288 122.337 386.176 122.465 386.324C122.859 386.776 132.091 387.023 139.633 386.782L146.772 386.555L147.458 382.893C148.347 378.153 144.107 369.552 138.754 365.236ZM57.3135 329.575C56.8625 329.586 51.8213 332.121 46.1094 335.207L35.7227 340.819L36.2764 351.436C36.8504 362.452 40.8792 379.421 43.7002 382.701C45.1107 384.341 53.2394 386.14 54.8213 385.162C55.2802 384.879 55.0799 381.138 54.377 376.851C52.4831 365.291 52.6743 354.856 54.8672 350.028C55.8742 347.812 57.0201 342.3 57.4141 337.778C57.809 333.257 57.7631 329.567 57.3135 329.575ZM147.36 340.618C145.784 340.653 143.594 341.04 142.494 341.478C141.394 341.914 136.347 343.105 131.278 344.122C120.989 346.185 121.114 346.042 121.157 355.721L121.177 360.387L124.156 359.349C131.047 356.947 141.096 361.229 145.314 368.365L147.494 372.055L148.101 363.055C148.435 358.105 149.05 351.017 149.467 347.305L150.227 340.555L147.36 340.618ZM77.7139 329.691C77.5911 329.767 76.3679 330.034 74.9942 330.287C71.0742 331.008 70.4492 331.996 68.4922 340.566C66.1724 350.721 67.078 356.197 71.0117 355.811C77.7947 355.144 77.4739 355.802 77.7139 342.094C77.8349 335.198 77.8349 329.616 77.7139 329.691ZM94.627 332.805C94.641 325.865 94.899 326.037 86.9942 327.737C84.5192 328.269 81.9322 329.432 81.2442 330.321C79.8773 332.09 79.4142 353.563 80.7442 353.544C81.1565 353.538 83.7036 352.863 86.4033 352.044C89.1033 351.225 92.7034 350.548 94.4033 350.54C99.8589 350.513 100.327 349.462 97.3213 343.986C95.1863 340.097 94.617 337.734 94.627 332.805ZM105.609 328.901C101.932 325.737 98.2822 325.828 96.7832 329.12C95.3053 332.363 96.9948 339.382 100.558 344.805C102.531 347.807 103.643 348.555 106.134 348.555H109.245L108.791 339.901C108.375 331.993 108.101 331.044 105.609 328.901ZM65.9942 330.555C64.3062 330.555 63.9959 331.217 64.0078 334.805C64.0148 337.142 64.3196 340.173 64.6856 341.539C65.2496 343.652 65.5419 343.202 66.6299 338.539C67.3329 335.523 67.9282 332.493 67.9522 331.805C67.9749 331.118 67.094 330.555 65.9942 330.555ZM149.381 323.685C142.535 320.566 132.225 321.897 124.616 326.883C122.201 328.465 121.994 329.153 121.994 335.578C121.994 340.862 122.331 342.554 123.381 342.555C125.742 342.555 149.454 337.359 150.159 336.688C150.524 336.338 151.127 333.557 151.499 330.507C152.153 325.13 152.088 324.919 149.381 323.685ZM161.053 339.555C160.535 339.555 159.834 340.005 159.494 340.555C159.154 341.105 159.578 341.554 160.435 341.555C161.292 341.555 161.994 341.105 161.994 340.555C161.994 340.005 161.571 339.555 161.053 339.555ZM184.662 326.555C182.305 326.555 179.687 327.118 178.844 327.805C177.38 328.999 171.994 337.788 171.994 338.983C171.997 339.867 179.624 339.525 188.877 338.229L197.259 337.055L193.104 331.805C189.249 326.935 188.637 326.555 184.662 326.555ZM163.559 325.58C161.156 324.666 160.994 324.796 160.994 327.629C160.994 329.293 161.635 331.894 162.419 333.41C163.935 336.341 168.808 339.185 170.029 337.853C171.426 336.327 174.81 327.705 174.237 327.132C173.92 326.814 171.965 326.555 169.892 326.555C167.82 326.555 164.97 326.116 163.559 325.58ZM208.65 321.665C206.905 321.831 192.839 325.376 192.473 325.743C192.3 325.92 193.774 328.248 195.751 330.918C199.273 335.673 199.442 335.765 203.774 335.276C210.089 334.565 211.37 332.925 210.509 326.661C210.109 323.755 209.308 321.603 208.65 321.665ZM181.494 323.75C179.844 323.77 179.29 323.994 180.263 324.248C181.236 324.502 182.586 324.485 183.263 324.211C183.94 323.937 183.144 323.73 181.494 323.75ZM171.303 322.655C166.884 322.731 166.092 322.946 167.994 323.555C171.609 324.713 175.779 324.713 176.494 323.555C176.881 322.928 174.943 322.592 171.303 322.655ZM156.583 298.305C157.269 294.995 157.186 294.997 148.994 298.466C145.419 299.98 140.702 301.508 138.511 301.862C133.671 302.643 121.254 308.435 120.564 310.232C120.292 310.946 120.343 314.482 120.68 318.092C121.196 323.617 121.545 324.542 122.893 323.942C128.047 321.648 137.883 318.603 140.209 318.581C141.702 318.567 145.008 319.262 147.554 320.127C150.1 320.991 152.337 321.545 152.525 321.358C152.712 321.17 153.574 316.525 154.439 311.036C155.304 305.546 156.269 299.817 156.583 298.305ZM177.038 257.274C167.896 265.044 167.994 264.886 167.994 271.809C167.994 279.758 171.53 286.16 176.9 287.931C185.643 290.816 186.894 299.201 181.423 318.24C180.875 320.144 181.352 320.576 185.144 321.611C188.701 322.582 191.224 322.495 198.99 321.131C204.212 320.214 208.816 319.132 209.22 318.728C209.624 318.324 209.492 316.321 208.927 314.275C208.017 310.978 207.536 310.552 204.697 310.531C195.718 310.464 188.994 306.383 188.994 300.999C188.994 297.49 192.102 294.869 198.455 293.022C201.501 292.137 203.994 291.083 203.994 290.679C203.994 290.274 202.975 286.924 201.73 283.234L199.467 276.522L194.109 282.61C188.227 289.292 184.648 291.342 182.286 289.383C178.606 286.328 184.992 276.664 193.107 273.004C196.849 271.317 196.996 271.075 196.379 267.645C195.535 262.954 194.397 261.637 191.777 262.322C190.116 262.756 188.714 261.823 185.56 258.187L181.487 253.492L177.038 257.274ZM170.494 317.555C163.291 317.555 161.994 317.805 161.994 319.191C161.994 320.562 162.747 320.724 166.634 320.191C169.185 319.841 173.01 319.555 175.134 319.555C177.257 319.555 178.994 319.105 178.994 318.555C178.993 317.967 175.493 317.555 170.494 317.555ZM168.994 309.225C168.994 306.972 164.083 295.926 164.028 298.055C164 299.155 163.693 302.418 163.346 305.305L162.715 310.555H165.855C167.8 310.555 168.994 310.049 168.994 309.225ZM179.994 292.555C177.184 289.745 174.569 289.887 175.406 292.805C175.76 294.043 176.754 297.755 177.614 301.055C178.474 304.354 179.811 307.713 180.586 308.519C181.802 309.783 181.994 308.929 181.994 302.269C181.994 295.888 181.648 294.209 179.994 292.555ZM205.937 300.619C204.499 292.572 204.023 292.322 196.994 295.905C191.395 298.76 190.487 302.224 194.509 305.388C197.047 307.384 205.507 309.372 206.643 308.24C206.948 307.934 206.632 304.505 205.937 300.619ZM132.994 260.479C132.994 271.168 132.622 275.373 131.483 277.576C129.68 281.063 123.406 285.555 120.339 285.555C118.228 285.555 118.167 285.837 118.673 293.305C118.961 297.567 119.489 302.284 119.846 303.785L120.494 306.515L125.794 304.058C130.988 301.65 131.08 301.532 130.443 298.137C129.479 292.993 133.485 285.192 141.403 276.799L148.06 269.742L144.09 269.071C138.293 268.092 134.994 264.634 134.994 259.537C134.994 253.96 136.401 251.727 141.325 249.492L145.494 247.599L142.369 247.577C140.65 247.565 137.838 247.274 136.119 246.93L132.994 246.305V260.479ZM161.555 271.305C162.342 266.844 161.566 266.666 154.994 269.802C145.681 274.247 133.083 289.439 133.016 296.305C132.984 299.54 134.817 299.113 141.594 294.305C158.546 282.277 159.894 280.724 161.555 271.305ZM158.493 287.805C159.156 284.54 158.697 283.608 157.434 285.653C157.058 286.257 153.128 289.407 148.697 292.653C140.304 298.801 139.726 299.824 146.494 296.555C148.694 295.492 151.232 294.608 152.133 294.589C154.764 294.534 157.78 291.318 158.493 287.805ZM193.929 279.305C198.41 274.377 197.869 273.43 192.174 276.237C188.416 278.088 183.994 283.365 183.994 285.998C183.994 287.647 184.161 287.641 186.802 285.903C188.346 284.887 191.553 281.918 193.929 279.305ZM159.292 249.982C157.212 248.405 148.652 248.221 144.994 249.676C136.501 253.052 134.322 261.605 141.066 265.092C146.171 267.732 159.042 266.25 163.557 262.503C165.126 261.201 162.005 252.04 159.292 249.982ZM178.994 247.473C178.994 245.293 176.861 246.896 173.892 251.305C172.133 253.918 169.783 257.067 168.67 258.305C165.228 262.13 168.522 260.791 174.468 255.947C178.159 252.94 179.927 250.827 179.559 249.865C179.248 249.055 178.994 247.978 178.994 247.473ZM175.816 242.881C175.34 240.428 174.118 240.457 167.494 243.078C164.194 244.384 160.144 245.514 158.494 245.589L155.494 245.727L158.308 246.572C162.244 247.753 163.765 249.235 164.507 252.613C164.859 254.218 165.505 255.751 165.94 256.021C167.158 256.773 176.181 244.765 175.816 242.881ZM151.083 160.539C150.759 160.255 148.99 161.492 147.153 163.288C142.538 167.796 134.882 169.916 126.472 169.016C120.935 168.423 119.994 168.552 119.994 169.907C119.994 176.93 129.292 232.374 131.007 235.579C132.522 238.41 144.614 240.095 152.912 238.631C162.265 236.981 172.094 234.788 172.655 234.227C172.917 233.962 172.252 232.017 171.176 229.902C167.568 222.812 163.075 208.669 161.461 199.32C160.582 194.224 158.019 183.53 155.767 175.555C153.514 167.58 151.407 160.824 151.083 160.539ZM55.9658 206.112C60.0398 197.734 61.1449 191.71 57.3789 198.407C56.3416 200.252 51.0575 208.94 45.6358 217.716C40.2138 226.492 35.9815 233.875 36.2295 234.123C37.253 235.14 52.0909 214.081 55.9658 206.112ZM142.288 185.977C141.401 180.513 143.749 181.884 145.418 187.805C148.12 197.39 148.415 200.554 146.605 200.555C145.591 200.555 144.994 199.703 144.994 198.255C144.994 195.355 143.231 193.555 140.389 193.555C138.394 193.555 138.235 193.936 138.721 197.555C139.328 202.082 137.546 203.136 136.029 199.147C134.416 194.901 133.656 184.884 134.891 184.118C135.596 183.683 136.242 184.546 136.618 186.425C137.75 192.086 143.209 191.655 142.288 185.977ZM149.33 191.954C148.72 187.471 148.804 187.171 150.321 188.421C152.413 190.145 154.477 197.472 153.224 198.725C151.741 200.207 150.054 197.276 149.33 191.954ZM148.148 183.993C147.933 182.95 148.307 182.492 149.148 182.772C150.706 183.292 150.978 185.529 149.494 185.608C148.944 185.637 148.34 184.91 148.148 183.993ZM117.681 140.142C116.017 137.867 110.311 137.266 107.044 139.021C105.697 139.745 103.982 140.103 103.231 139.816C102.481 139.528 101.229 140.202 100.45 141.313C97.9052 144.947 85.3389 153.538 78.4219 156.373C70.6002 159.579 69.0061 161.341 70.836 164.759C71.85 166.655 71.8189 167.748 70.6729 170.574C66.705 180.352 67.7026 179.833 83.0684 164.109C99.5674 147.228 103.16 144.793 112.542 144.13C118.889 143.681 119.769 142.998 117.681 140.142ZM66.3565 106.794C60.0135 86.8859 58.9463 92.028 64.6973 114.792C67.7183 126.753 68.1777 129.767 67.1397 130.792C65.3918 132.516 64.3703 130.993 58.4356 117.806C53.3347 106.469 49.2411 99.4528 47.3711 98.8408C43.9871 97.7328 46.1288 110.681 51.9287 126.39C54.8357 134.262 55.0707 136.555 52.9717 136.555C51.6589 136.553 44.8501 126.215 40.6055 117.78C37.0115 110.639 30.7256 102.555 28.7676 102.555C27.3762 102.556 28.2223 106.826 32.9307 123.555C39.4387 146.679 41.7391 164.426 38.9131 169.706C38.3182 170.817 38.0838 171.978 38.3916 172.286C38.8426 172.737 56.8252 168.999 64.2442 166.912C65.6501 166.517 65.9942 165.293 65.9942 160.679C65.9942 157.521 66.5573 154.227 67.2442 153.357C67.9322 152.489 72.7692 149.918 77.9942 147.645C89.9581 142.443 90.4941 142.135 90.4942 140.446C90.4942 139.405 88.9049 139.055 84.1709 139.055C76.5241 139.055 76.277 138.793 72.6211 126.822C71.1491 122 68.3305 112.988 66.3565 106.794ZM124.843 85.5859C124.244 85.6412 105.644 97.5053 104.741 98.4082C103.65 99.4994 105.744 112.226 107.588 115.709C109.479 119.279 109.397 119.555 106.449 119.555C103.887 119.555 98.9942 123.507 98.9942 125.575C98.9943 127.75 101.09 130.554 102.715 130.555C103.622 130.555 105.36 129.62 106.577 128.477L108.788 126.4L112.691 128.864C117.42 131.85 122.994 141.592 122.994 146.872C122.994 149.648 122.319 150.938 119.86 152.863C117.038 155.071 116.795 155.681 117.415 158.988C117.794 161.007 118.708 162.892 119.446 163.175C120.185 163.458 124.322 163.206 128.641 162.615C136.908 161.484 148.318 156.759 149.364 154.034C150.375 151.398 148.186 147.701 144.078 145.108C141.206 143.295 139.758 141.5 138.925 138.718C137.404 133.642 138.639 131.389 144.501 128.552C150.227 125.78 154.994 121.068 154.994 118.18C154.994 116.958 153.307 114.145 151.244 111.932C149.182 109.718 145.782 105.928 143.69 103.51C140.824 100.197 139.679 99.4468 139.049 100.467C138.358 101.584 137.804 101.535 135.88 100.187C133.087 98.2318 131.989 98.123 132.008 99.8047C132.016 100.493 134.266 102.292 137.008 103.805C142.47 106.817 143.164 108.622 139.772 110.998C136.634 113.196 134.994 112.931 134.994 110.228C134.994 108.949 133.868 106.846 132.492 105.554C129.015 102.286 127.6 96.8058 129.489 93.9218C130.823 91.886 130.709 91.4616 128.066 88.6318C126.485 86.9388 125.035 85.5689 124.843 85.5859ZM106.077 121.555C108.514 121.555 108.17 123.892 105.661 124.378C104.674 124.57 103.994 124.06 103.994 123.128C103.994 122.201 104.849 121.555 106.077 121.555ZM129.994 116.465C129.994 114.776 130.385 114.558 132.244 115.215C133.482 115.651 136.438 115.9 138.813 115.768C142.986 115.534 143.12 115.618 142.813 118.291C142.535 120.706 142.011 121.095 138.668 121.37C134.124 121.744 129.994 119.408 129.994 116.465ZM115.794 104.095C117.194 101.021 120.744 100.722 124.05 103.399C126.953 105.75 126.142 109.24 123.075 107.598C119.277 105.566 117.684 106.254 118.36 109.635C118.803 111.848 118.626 112.599 117.735 112.304C115.618 111.601 114.51 106.913 115.794 104.095ZM239.129 10.8213C238.78 10.6933 234.444 13.791 229.494 17.706C224.544 21.6219 217.906 26.6526 214.744 28.8867C208.587 33.2357 207.92 34.9169 210.865 38.6699C213.62 42.1794 240.166 82.2633 243.406 87.8047C244.934 90.4162 246.649 92.5539 247.219 92.5547C248.694 92.5547 279.99 74.5535 279.994 73.7031C279.994 72.2461 276.828 68.5548 275.578 68.5547C274.862 68.5547 270.867 70.1297 266.7 72.0547C262.534 73.9797 258.026 75.5547 256.682 75.5547C253.446 75.5545 251.615 73.206 252.401 70.0683C253.118 67.2143 252.141 66.989 245.621 68.5009C236.694 70.5719 234.184 65.1498 241.244 59.0468C244.861 55.92 245.122 55.4599 242.994 55.9609C241.619 56.2839 238.139 56.8355 235.26 57.1875C229.276 57.9174 226.994 56.7159 226.994 52.8339C226.994 49.4269 231.016 45.9507 241.587 40.2197C255.876 32.4748 255.319 34.3697 246.98 21.8711C243.013 15.9221 239.479 10.9503 239.129 10.8213ZM260.634 16.9277C253.726 14.4908 253.478 15.127 258.494 22.4189C260.419 25.2166 261.994 28.2213 261.994 29.0966C261.994 33.6646 254.922 41.3391 246.192 46.2441C242.727 48.1916 240.042 49.9354 240.226 50.1201C240.767 50.6621 258.28 46.0075 260.823 44.6455C262.103 43.9606 263.79 43.6473 264.572 43.9472C268.319 45.3854 264.442 50.4881 254.494 57.2119L249.494 60.5918L252.994 59.9326C254.919 59.5705 259.959 58.0279 264.195 56.5029C269.904 54.4481 272.137 54.0308 272.829 54.8925C274.128 56.5085 272.551 60.1873 269.965 61.5713C268.787 62.2011 268.051 62.9445 268.33 63.2236C268.609 63.5026 270.824 62.5665 273.253 61.1425C281.317 56.4166 281.999 56.882 286.677 70.3047L290.772 82.0547L302.099 81.7246C308.328 81.5426 314.195 80.9815 315.137 80.4775C317.47 79.2295 318.427 70.727 317.564 58.9472C316.768 48.1064 314.762 41.488 310.407 35.3271C304.879 27.5061 300.326 25.356 281.382 21.623C272.111 19.796 262.774 17.6827 260.634 16.9277ZM198.955 69.1445C201.251 63.791 203.202 63.093 202.682 67.8125C202.273 71.5205 200.364 75.5547 199.018 75.5547C197.085 75.5543 197.066 73.5531 198.955 69.1445ZM190.838 50.7168C191.274 53.5198 182.464 62.4245 180.851 60.8115C179.27 59.229 182.427 54.0132 186.755 51.0605L190.494 48.5097L190.838 50.7168ZM216.661 32.2216C218.224 30.659 220.085 31.8121 221.974 35.5146C224.49 40.4464 224.507 41.5545 222.067 41.5547C218.612 41.5547 214.473 34.4086 216.661 32.2216ZM170.44 28.6416C171.889 26.2992 180.994 28.2543 180.994 30.9072C180.994 31.9829 179.889 32.1925 176.244 31.8095C171.09 31.2685 169.39 30.3406 170.44 28.6416ZM180.507 7.53414C181.414 6.06616 182.901 6.33377 186.627 8.63668C192.191 12.0757 195.017 17.5547 191.226 17.5547C187.108 17.5541 179 9.97434 180.507 7.53414ZM213.717 0.165979C214.648 -0.765021 216.994 2.42599 216.994 4.62399C216.994 6.55989 214.633 8.86051 213.652 7.87985C212.764 6.9909 212.813 1.06952 213.717 0.165979Z" fill="black"/>
</svg>
