<svg width="48" height="48" viewBox="0 0 48 48" fill="none" xmlns="http://www.w3.org/2000/svg">
<path d="M19.342 8.27206C19.4522 7.11274 19.9907 6.03615 20.8522 5.25262C21.7137 4.46909 22.8365 4.03491 24.001 4.03491C25.1655 4.03491 26.2883 4.46909 27.1498 5.25262C28.0113 6.03615 28.5498 7.11274 28.66 8.27206C28.7262 9.02097 28.9719 9.7429 29.3763 10.3767C29.7806 11.0106 30.3317 11.5377 30.9829 11.9134C31.6341 12.2891 32.3663 12.5025 33.1174 12.5353C33.8685 12.5681 34.6165 12.4195 35.298 12.1021C36.3562 11.6216 37.5553 11.5521 38.662 11.907C39.7687 12.262 40.7037 13.016 41.285 14.0223C41.8664 15.0286 42.0526 16.2152 41.8073 17.3512C41.562 18.4872 40.9028 19.4913 39.958 20.1681C39.3428 20.5998 38.8405 21.1733 38.4938 21.8401C38.1471 22.5069 37.9661 23.2475 37.9661 23.9991C37.9661 24.7506 38.1471 25.4912 38.4938 26.158C38.8405 26.8248 39.3428 27.3984 39.958 27.8301C40.9028 28.5068 41.562 29.5109 41.8073 30.6469C42.0526 31.7829 41.8664 32.9695 41.285 33.9759C40.7037 34.9822 39.7687 35.7362 38.662 36.0911C37.5553 36.446 36.3562 36.3765 35.298 35.8961C34.6165 35.5786 33.8685 35.43 33.1174 35.4628C32.3663 35.4957 31.6341 35.709 30.9829 36.0847C30.3317 36.4604 29.7806 36.9875 29.3763 37.6214C28.9719 38.2552 28.7262 38.9771 28.66 39.7261C28.5498 40.8854 28.0113 41.962 27.1498 42.7455C26.2883 43.529 25.1655 43.9632 24.001 43.9632C22.8365 43.9632 21.7137 43.529 20.8522 42.7455C19.9907 41.962 19.4522 40.8854 19.342 39.7261C19.2759 38.9769 19.0302 38.2547 18.6257 37.6206C18.2213 36.9865 17.6699 36.4593 17.0185 36.0835C16.367 35.7077 15.6345 35.4945 14.8832 35.4619C14.1318 35.4292 13.3836 35.5782 12.702 35.8961C11.6438 36.3765 10.4447 36.446 9.338 36.0911C8.23135 35.7362 7.29634 34.9822 6.71497 33.9759C6.13359 32.9695 5.94743 31.7829 6.19272 30.6469C6.43801 29.5109 7.0972 28.5068 8.042 27.8301C8.65724 27.3984 9.15946 26.8248 9.50618 26.158C9.85289 25.4912 10.0339 24.7506 10.0339 23.9991C10.0339 23.2475 9.85289 22.5069 9.50618 21.8401C9.15946 21.1733 8.65724 20.5998 8.042 20.1681C7.09853 19.4909 6.4405 18.4872 6.1958 17.352C5.9511 16.2168 6.13722 15.0311 6.71797 14.0255C7.29872 13.0198 8.23262 12.266 9.33818 11.9105C10.4437 11.5551 11.642 11.6233 12.7 12.1021C13.3815 12.4195 14.1295 12.5681 14.8806 12.5353C15.6317 12.5025 16.3639 12.2891 17.0151 11.9134C17.6663 11.5377 18.2174 11.0106 18.6217 10.3767C19.0261 9.7429 19.2718 9.02097 19.338 8.27206" stroke="white" stroke-width="4" stroke-linecap="round" stroke-linejoin="round"/>
<path d="M24 30C27.3137 30 30 27.3137 30 24C30 20.6863 27.3137 18 24 18C20.6863 18 18 20.6863 18 24C18 27.3137 20.6863 30 24 30Z" stroke="white" stroke-width="4" stroke-linecap="round" stroke-linejoin="round"/>
</svg>
